<svg xmlns="http://www.w3.org/2000/svg" width="580" height="400">
  <g>
    <title>Lineup</title>
    <rect x="0" y="0" height="400" width="580" fill="#3f3154" />
    <path
      d="m24.902004,401.159055l100.958148,-355.820385l336.52717,0l100.958101,355.820385l-538.443419,0z"
      fill="#342548"
    />
    <g>
      <path
        d="m229.352591,384.342945l5.273406,-18.377016l21.093621,0l-5.273406,18.377016l-21.093621,0z"
        fill="#e2e2e2"
      />
      <path
        d="m249.971167,384.342945l5.273406,-18.377016l101.588414,0l-6,18.377016l-100.86182,0z"
        fill="#5c3281"
      />
    </g>
    <g>
      <g>
        <path
          d="m25.284176,293.587409l5.273406,-18.377016l21.093621,0l-5.273406,18.377016l-21.093621,0z"
          fill="#e2e2e2"
        />
        <path
          d="m45.902752,293.587409l5.273406,-18.377016l101.588414,0l-6,18.377016l-100.86182,0z"
          fill="#5c3281"
        />
      </g>
      <g>
        <path
          d="m159.342955,293.587409l5.273406,-18.377016l21.093621,0l-5.273406,18.377016l-21.093621,0z"
          fill="#e2e2e2"
        />
        <path
          d="m179.961531,293.587409l5.273406,-18.377016l101.588414,0l-6,18.377016l-100.86182,0z"
          fill="#5c3281"
        />
      </g>
      <g>
        <path
          d="m293.45402,293.587409l5.273406,-18.377016l21.093621,0l-5.273406,18.377016l-21.093621,0z"
          fill="#e2e2e2"
        />
        <path
          d="m314.072596,293.587409l5.273406,-18.377016l101.588414,0l-6,18.377016l-100.86182,0z"
          fill="#5c3281"
        />
      </g>

      <g>
        <path
          d="m427.512799,293.587409l5.273406,-18.377016l21.093621,0l-5.273406,18.377016l-21.093621,0z"
          fill="#e2e2e2"
        />
        <path
          id="svg_66"
          d="m448.131375,293.587409l5.273406,-18.377016l101.588414,0l-6,18.377016l-100.86182,0z"
          fill="#5c3281"
        />
      </g>
    </g>
    <g>
      <g>
        <path
          d="m92.313548,202.865669l5.273406,-18.377016l21.093621,0l-5.273406,18.377016l-21.093621,0z"
          fill="#e2e2e2"
        />
        <path
          d="m112.932124,202.865669l5.273406,-18.377016l101.588414,0l-6,18.377016l-100.86182,0z"
          fill="#5c3281"
        />
      </g>
      <g id="svg_77">
        <path
          d="m226.372327,202.865669l5.273406,-18.377016l21.093621,0l-5.273406,18.377016l-21.093621,0z"
          fill="#e2e2e2"
        />
        <path
          d="m246.990903,202.865669l5.273406,-18.377016l101.588414,0l-6,18.377016l-100.86182,0z"
          fill="#5c3281"
        />
      </g>
      <g>
        <path
          d="m360.483392,202.865669l5.273406,-18.377016l21.093621,0l-5.273406,18.377016l-21.093621,0z"
          fill="#e2e2e2"
        />
        <path
          d="m381.101968,202.865669l5.273406,-18.377016l101.588414,0l-6,18.377016l-100.86182,0z"
          fill="#5c3281"
        />
      </g>
    </g>
    <g>
      <g>
        <path
          d="m92.313548,112.120498l5.273406,-18.377016l21.093621,0l-5.273406,18.377016l-21.093621,0z"
          fill="#e2e2e2"
        />
        <path
          d="m112.932124,112.120498l5.273406,-18.377016l101.588414,0l-6,18.377016l-100.86182,0z"
          fill="#5c3281"
        />
      </g>
      <g>
        <path
          d="m226.372327,112.120498l5.273406,-18.377016l21.093621,0l-5.273406,18.377016l-21.093621,0z"
          fill="#e2e2e2"
        />
        <path
          d="m246.990903,112.120498l5.273406,-18.377016l101.588414,0l-6,18.377016l-100.86182,0z"
          fill="#5c3281"
        />
      </g>
      <g>
        <path
          d="m360.483392,112.120498l5.273406,-18.377016l21.093621,0l-5.273406,18.377016l-21.093621,0z"
          fill="#e2e2e2"
        />
        <path
          d="m381.101968,112.120498l5.273406,-18.377016l101.588414,0l-6,18.377016l-100.86182,0z"
          fill="#5c3281"
        />
      </g>
    </g>
  </g>
</svg>
